<svg height="512" width="512" xmlns="http://www.w3.org/2000/svg"><path d="M90.997 364.003h119.998V147.182L78.62 340.529c-6.805 9.94.33 23.474 12.377 23.474z"/><path d="M488.49 391.572H263.491v-27.569h149.997c8.28 0 15-6.72 15-15 0-45.429-9.19-87.148-27.32-124.008-29.039-59.049-81.459-104.268-137.677-127.378V15.009c0-10.61-10.75-17.85-20.55-13.93-.05.02-.09.04-.14.05-4.03 1.66-89.908 36.969-90.008 37.009-12.31 5.06-12.39 22.51-.13 27.69l80.829 34.129v291.615H23.498c-9.217 0-16.388 8.233-14.803 17.86l13.693 89.818A15 15 0 0037.218 512h335.291c51.636 0 97.805-29.107 120.101-73.312.075.006.152.007.227.013 4.44-8.93 7.89-18.39 10.24-28.21 2.365-9.88-4.925-18.919-14.587-18.919zM263.491 143.337c40.059 49.959 40.119 120.338 0 170.367z"/></svg>